<svg version="1.1" id="Layer_1" xmlns="http://www.w3.org/2000/svg" xmlns:xlink="http://www.w3.org/1999/xlink" x="0px" y="0px"
	  viewBox="0 0 252 181.097" enable-background="new 0 0 252 181.097" xml:space="preserve">
<g>
	<g>
		<path d="M250.368,44.604l-47.501-43.3c-1.46-1.332-3.581-1.676-5.389-0.879c-1.806,0.797-2.981,2.597-2.981,4.574
			v29.801H111.75c-7.594,0-13.75,6.156-13.75,13.75s6.156,13.75,13.75,13.75l82.747,0v29.3c0,1.977,1.176,3.776,2.983,4.574
			c0.646,0.285,1.332,0.424,2.014,0.424c1.225,0,2.436-0.448,3.373-1.303l47.501-43.3c1.041-0.95,1.632-2.284,1.632-3.695
			S251.409,45.554,250.368,44.604z"/>
	</g>
</g>
<g>
	<g>
		<path d="M1.632,129.104l47.501-43.301c1.46-1.332,3.581-1.676,5.389-0.879c1.806,0.797,2.981,2.597,2.981,4.574
			v29.801h82.747c7.594,0,13.75,6.156,13.75,13.75s-6.156,13.75-13.75,13.75H57.503v29.3c0,1.977-1.176,3.776-2.983,4.574
			c-0.646,0.285-1.332,0.424-2.014,0.424c-1.225,0-2.436-0.448-3.373-1.303l-47.501-43.3C0.591,135.543,0,134.209,0,132.799
			C0,131.387,0.591,130.053,1.632,129.104z"/>
	</g>
</g>
</svg>
