<?xml version="1.0" encoding="utf-8"?>
<svg version="1.1" id="Layer_1" xmlns="http://www.w3.org/2000/svg" xmlns:xlink="http://www.w3.org/1999/xlink" x="0px" y="0px"
	 width="29.048px" height="27.282px" viewBox="0 0 29.048 27.282" enable-background="new 0 0 29.048 27.282" xml:space="preserve">
<polygon fill="none" stroke="currentColor" points="10.822,4.142 1.901,0.813 0.517,4.977 1.451,9.458 0.858,9.898 1.737,10.568 
	1.066,11.095 1.945,11.897 1.396,12.293 2.66,13.776 0.748,19.729 2.528,25.806 8.756,24.091 9.965,25.08 12.415,26.782 
	16.622,26.782 19.083,25.08 20.292,24.091 26.52,25.806 28.311,19.729 26.377,13.776 27.652,12.293 27.102,11.897 27.981,11.095 
	27.3,10.568 28.179,9.898 27.596,9.458 28.531,4.977 27.135,0.813 18.226,4.142 "/>
<polygon fill="#FFFFFF" fill-opacity="0" points="9.174,17.259 11.371,16.259 12.272,18.17 "/>
<g>
	<polygon fill="#FFFFFF" fill-opacity="0" points="16.776,18.17 17.688,16.259 19.885,17.259 	"/>
</g>
<g>
	<polygon fill="none" stroke="currentColor" points="27.596,9.458 28.531,4.977 27.135,0.813 16.567,8.657 20.631,12.095 26.377,13.776 
		27.652,12.293 27.102,11.897 27.981,11.095 27.3,10.568 28.179,9.898 	"/>
</g>
<g>
	<polygon fill="none" stroke="currentColor" points="0.517,4.977 1.451,9.458 0.858,9.898 1.737,10.568 1.066,11.095 1.945,11.897 
		1.396,12.293 2.66,13.776 8.405,12.095 12.47,8.657 1.901,0.813 	"/>
</g>
<polygon fill="#FFFFFF" fill-opacity="0" points="16.864,24.706 16.567,22.278 16.04,21.916 12.997,21.916 12.47,22.278 12.195,24.706 "/>
</svg>
